<svg id="Layer_5" enable-background="new 0 0 62 62" height="512" viewBox="0 0 62 62" width="512" xmlns="http://www.w3.org/2000/svg"><g><g><g><path d="m5 57c-2.21 0-4-1.79-4-4v-4h30v4c0 2.21-1.79 4-4 4z" fill="#969faa"/></g><g><path d="m27 9v4h-26v-4c0-2.21 1.79-4 4-4h22z" fill="#969faa"/></g><g><path d="m31 23v26h-30v-36h26v8c0 1.1.9 2 2 2z" fill="#69d6f4"/></g><g><circle cx="14" cy="26" fill="#ffeaa7" r="9"/></g><g><path d="m23 39h4v6h-4z" fill="#ff826e"/></g><g><path d="m13 39h6v6h-6z" fill="#ff826e"/></g><g><path d="m5 39h4v6h-4z" fill="#ff826e"/></g><g><path d="m59 1h-30c-1.1 0-2 .9-2 2v18c0 1.1.9 2 2 2h30c1.1 0 2-.9 2-2v-18c0-1.1-.9-2-2-2z" fill="#e6e9ed"/></g><g><path d="m49.41 18.24c-.61.48-1.39.76-2.21.76-.13 0-.27-.01-.4-.02-.03-.01-.06-.01-.09-.01-.08-.14-.18-.27-.3-.38-.36-.37-.86-.59-1.41-.59-.37 0-.72.1-1.02.28-1.88-.74-3.5-1.96-4.71-3.53-1.22-1.57-2.02-3.47-2.25-5.55-.01-.13-.02-.27-.02-.4 0-1.65 1.12-3.08 2.72-3.48l.97-.24c.2-.05.42-.08.63-.08h.06c.99 0 1.9.56 2.34 1.45.19.36.28.76.28 1.17v.3c0 .69-.28 1.36-.77 1.85l-1.23 1.23c0 .83.34 1.58.88 2.12s1.29.88 2.12.88l1.23-1.23c.49-.49 1.16-.77 1.85-.77h.3c.41 0 .81.09 1.17.28.89.44 1.45 1.35 1.45 2.34v.06c0 .21-.03.43-.08.63l-.24.97c-.2.8-.66 1.48-1.27 1.96z" fill="#aab2bd"/></g><g><path d="m18 34.05v.01c-1.2.6-2.57.94-4 .94s-2.8-.34-4-.94v-.01-1.05c0-1.1.45-2.1 1.17-2.83.73-.72 1.73-1.17 2.83-1.17 2.21 0 4 1.79 4 4z" fill="#e6e9ed"/></g><g><circle cx="14" cy="25" fill="#f0d0b4" r="4"/></g><g><path d="m58 53v8h-18v-8c0-1.1.9-2 2-2h14c1.1 0 2 .9 2 2z" fill="#fcd770"/></g><g><path d="m55 34c0-1.11.9-2 2-2 .55 0 1.05.22 1.41.59.37.36.59.86.59 1.41v11.51c0 1.6-.63 3.12-1.76 4.25l-1.24 1.24h-14l-1.24-1.24c-1.13-1.13-1.76-2.65-1.76-4.25v-2.42c0-2.69-.63-5.34-1.83-7.75-.11-.22-.17-.47-.17-.72 0-.9.72-1.62 1.62-1.62 2.42 0 4.38 1.96 4.38 4.38v-14.38-3c0-.73.39-1.37.98-1.72.3-.18.65-.28 1.02-.28.55 0 1.05.22 1.41.59.12.11.22.24.3.38.19.3.29.65.29 1.03v3 8c0-1.1.9-2 2-2 .55 0 1.05.22 1.41.59.37.36.59.86.59 1.41v2c0-1.1.9-2 2-2 .55 0 1.05.22 1.41.59.37.36.59.86.59 1.41z" fill="#f0d0b4"/></g></g><g><path d="m54 4h2v2h-2z"/><path d="m50 4h2v2h-2z"/><path d="m46 4h2v2h-2z"/><path d="m59 0h-30c-1.654 0-3 1.346-3 3v1h-21c-2.757 0-5 2.243-5 5v44c0 2.757 2.243 5 5 5h22c2.757 0 5-2.243 5-5v-29h10v9.23c-.927-.756-2.094-1.23-3.382-1.23-1.443 0-2.618 1.175-2.618 2.619 0 .404.096.809.276 1.171 1.128 2.255 1.724 4.78 1.723 7.301v2.423c0 1.872.729 3.63 2.052 4.952l.15.15c-.725.547-1.201 1.407-1.201 2.384v9h20v-9c0-.977-.476-1.837-1.201-2.385l.15-.15c1.322-1.322 2.051-3.08 2.051-4.95v-11.514c0-1.653-1.346-3-3-3.001 0 0 0 0-.001 0-.526 0-1.025.147-1.471.4-.532-.839-1.463-1.4-2.528-1.4-.395 0-.77.081-1.116.22-.345-1.275-1.501-2.22-2.884-2.22-.352 0-.686.072-1 .184v-4.184h11c1.654 0 3-1.346 3-3v-18c0-1.654-1.346-3-3-3zm-54 6h21v2h-6v2h6v2h-24v-3c0-1.654 1.346-3 3-3zm22 50h-22c-1.654 0-3-1.346-3-3v-3h28v3c0 1.654-1.346 3-3 3zm3-8h-28v-34h24v7c0 1.654 1.346 3 3 3h1zm15-33h.414l1.526-1.526c.306-.306.712-.474 1.144-.474h.298c.25 0 .5.059.724.171.551.276.894.83.894 1.507 0 .132-.017.264-.048.393l-.242.969c-.287 1.148-1.31 1.95-2.492 1.959-.549-.609-1.336-.999-2.218-.999-.354 0-.688.073-1.004.185-3.296-1.441-5.581-4.5-5.98-8.092-.01-.096-.016-.194-.016-.292 0-1.19.806-2.222 1.961-2.51l.969-.243c.129-.032.26-.048.452-.048.617 0 1.172.343 1.447.895.112.223.171.473.171.723v.297c0 .433-.168.839-.474 1.144l-1.526 1.527v.414c0 2.206 1.794 4 4 4zm12 45h-16v-7c0-.551.448-1 1-1h14c.552 0 1 .449 1 1zm-8-30c.552 0 1 .449 1 1v2 7h2v-7c0-.551.448-1 1-1s1 .449 1 1v1 5 1h2v-1-5c0-.267.104-.518.293-.707.188-.189.439-.293.706-.293.552 0 1.001.45 1.001 1.001v11.514c0 1.336-.521 2.592-1.465 3.536l-.949.949h-13.172l-.949-.95c-.945-.944-1.466-2.2-1.466-3.537v-2.422c.001-2.83-.668-5.664-1.934-8.196-.043-.085-.065-.181-.065-.276 0-.341.277-.619.618-.619 1.864 0 3.382 1.518 3.382 3.382v1.618 1h2v-1-1.618-17.382c0-.551.448-1 1-1s1 .449 1 1v11 9h2v-9c0-.551.448-1 1-1zm11-9c0 .551-.448 1-1 1h-11v-2c0-.024-.007-.046-.007-.07 1.762-.308 3.21-1.621 3.656-3.405l.243-.97c.072-.287.108-.582.108-.937 0-1.379-.767-2.619-2-3.236-.5-.25-1.06-.382-1.618-.382h-.298c-.966 0-1.874.376-2.558 1.06l-.904.904c-.801-.153-1.433-.786-1.586-1.585l.904-.904c.684-.683 1.06-1.592 1.06-2.559v-.298c0-.559-.132-1.118-.382-1.618-.616-1.234-1.856-2-3.296-2-.296 0-.591.036-.878.108l-.969.243c-2.046.51-3.475 2.341-3.475 4.45 0 .167.01.334.027.506.445 4.001 2.832 7.45 6.327 9.308-.218.417-.354.883-.354 1.385v2h-13c-.552 0-1-.449-1-1v-18c0-.551.448-1 1-1h30c.552 0 1 .449 1 1z"/><circle cx="5" cy="9" r="1"/><circle cx="9" cy="9" r="1"/><path d="m24 52h4v2h-4z"/><path d="m4 52h4v2h-4z"/><path d="m12 52h8v2h-8z"/><path d="m14 16c-5.514 0-10 4.486-10 10s4.486 10 10 10 10-4.486 10-10-4.486-10-10-10zm-3 17.411v-.411c0-1.654 1.346-3 3-3s3 1.346 3 3v.411c-.927.377-1.939.589-3 .589s-2.073-.212-3-.589zm0-8.411c0-1.654 1.346-3 3-3s3 1.346 3 3-1.346 3-3 3-3-1.346-3-3zm7.928 7.289c-.194-1.345-.916-2.512-1.959-3.289 1.225-.912 2.031-2.359 2.031-4 0-2.757-2.243-5-5-5s-5 2.243-5 5c0 1.641.806 3.088 2.031 4-1.043.777-1.765 1.944-1.959 3.289-1.867-1.466-3.072-3.737-3.072-6.289 0-4.411 3.589-8 8-8s8 3.589 8 8c0 2.552-1.205 4.823-3.072 6.289z"/><path d="m4 46h6v-8h-6zm2-6h2v4h-2z"/><path d="m12 46h8v-8h-8zm2-6h4v4h-4z"/><path d="m22 46h6v-8h-6zm2-6h2v4h-2z"/></g></g></svg>